<?xml version="1.0" encoding="utf-8"?>
<!-- Generator: Adobe Illustrator 19.0.0, SVG Export Plug-In . SVG Version: 6.00 Build 0)  -->
<svg version="1.1" id="Layer_1" xmlns="http://www.w3.org/2000/svg" xmlns:xlink="http://www.w3.org/1999/xlink" x="0px" y="0px"
	 viewBox="-2 4 24 24" style="enable-background:new -2 4 24 24;" xml:space="preserve">
<style type="text/css">
	.st0{fill:#7171FF;}
</style>
<g>
	<g>
		<path class="st0" d="M19.4,12.1c-0.2-4-3.5-7.1-7.5-7.1H9.1C5.8,5,3,7.2,2,10.2V5.8l1.7-0.9C3.9,4.8,4,4.6,4,4.4
			C3.9,4.2,3.7,4,3.5,4h-2C1.2,4,1,4.2,1,4.5v6.6c-0.6,0.2-1,0.8-1,1.4v7c0,0.7,0.5,1.3,1.1,1.5L1,23.5c0,0.2,0.1,0.3,0.2,0.4
			l4.2,2.8C6.7,27.6,8.1,28,9.6,28h1.8c1.5,0,2.9-0.4,4.2-1.3l4.2-2.8c0.1-0.1,0.2-0.3,0.2-0.4L19.4,12.1z M1.6,12.1l-0.4,7.8
			C1.1,19.8,1,19.7,1,19.5v-7C1,12.2,1.2,12,1.5,12L1.6,12.1C1.6,12,1.6,12.1,1.6,12.1z M9.1,6h2.8c3.1,0,5.6,2.1,6.3,5H2.8
			C3.5,8.1,6.1,6,9.1,6z M6,25.9l-4-2.7l0.3-5.2C4.4,18.5,6,20.3,6,22.5C6,22.5,6,25.9,6,25.9z M12.5,17.5L12,27c-0.2,0-0.4,0-0.6,0
			H9.6c-0.2,0-0.4,0-0.6,0l-0.5-9.5c0-0.2-0.1-0.4-0.3-0.4l-3.8-1.3C4.1,15.7,4,15.5,4,15.3v-0.8C4,14.2,4.2,14,4.5,14h12
			c0.3,0,0.5,0.2,0.5,0.5v0.8c0,0.2-0.1,0.4-0.3,0.5L12.8,17C12.6,17.1,12.5,17.3,12.5,17.5z M14,26.4c-0.3,0.1-0.6,0.3-1,0.3
			l0.5-8.9l3.5-1.2c0.6-0.2,1-0.8,1-1.4v-0.8c0-0.8-0.7-1.5-1.5-1.5h-12C3.7,13,3,13.7,3,14.5v0.8c0,0.6,0.4,1.2,1,1.4l3.5,1.2
			L8,26.8c-0.3-0.1-0.7-0.2-1-0.3v-3.9c0-2.7-2-5-4.6-5.5l0.3-4.9c0,0,0-0.1,0-0.1h15.7c0,0,0,0.1,0,0.1l0.3,4.9
			C16,17.5,14,19.8,14,22.5V26.4z M15,25.9v-3.4c0-2.2,1.6-4,3.7-4.5l0.3,5.2L15,25.9z"/>
	</g>
</g>
</svg>
