<?xml version="1.0" encoding="utf-8"?>
<!-- Generator: Adobe Illustrator 19.0.0, SVG Export Plug-In . SVG Version: 6.00 Build 0)  -->
<svg version="1.1" id="Layer_1" xmlns="http://www.w3.org/2000/svg" xmlns:xlink="http://www.w3.org/1999/xlink" x="0px" y="0px"
	 viewBox="-2 4 24 24" style="enable-background:new -2 4 24 24;" xml:space="preserve">
<style type="text/css">
	.st0{fill:#7171FF;}
</style>
<g>
	<g>
		<path class="st0" d="M21.8,22.9l-2.8-8V14c0-4.2-2.9-7.8-7-8.8C11.8,4.5,11.2,4,10.5,4h-1C8.8,4,8.2,4.5,8,5.2C3.9,6.2,1,9.8,1,14
			v0.9l-2.8,8C-1.9,23.2-2,23.6-2,24c0,1.5,1,2.8,2.5,3.1c1.9,0.4,5,0.9,9.5,0.9s7.7-0.5,9.5-0.9C21,26.8,22,25.5,22,24
			C22,23.6,21.9,23.2,21.8,22.9z M12,6.3c3.1,0.8,5.4,3.4,5.9,6.5c-1.2-1-3.4-1.3-5.9-0.9V6.3z M9,5.5C9,5.2,9.2,5,9.5,5h1
			C10.8,5,11,5.2,11,5.5V12c0,0.3-0.2,0.5-0.5,0.5h-1C9.2,12.5,9,12.3,9,12V5.5z M8,6.3v5.6c-2.5-0.4-4.7-0.1-5.9,0.9
			C2.6,9.6,4.9,7.1,8,6.3z M19.3,26.1C17.5,26.5,14.4,27,10,27s-7.5-0.5-9.3-0.9C-0.3,25.9-1,25-1,24c0-0.3,0-0.5,0.1-0.7L2,15.2
			c0-0.1,0-0.1,0-0.2c0-0.6,0.2-1.1,0.7-1.4C3.8,12.7,6,12.5,8.4,13c0.3,0.3,0.7,0.5,1.1,0.5h1c0.4,0,0.8-0.2,1.1-0.5
			c2.4-0.5,4.6-0.3,5.7,0.6c0.5,0.4,0.7,0.9,0.7,1.4c0,0.1,0,0.1,0,0.2l2.8,8.1C21,23.5,21,23.7,21,24C21,25,20.3,25.9,19.3,26.1z
			 M12.6,14c-0.4,0-0.8,0.1-1.1,0.4c-0.3,0.3-0.5,0.7-0.5,1.1v1.7c0,0.7,0.5,1.3,1.2,1.5c0.6,0.1,1.5,0.3,2.3,0.3c0.7,0,3,0,3-2
			C17.5,16,16.9,14.3,12.6,14z M14.5,18c-0.8,0-1.6-0.2-2.1-0.3c-0.2-0.1-0.4-0.3-0.4-0.5v-1.7c0-0.1,0.1-0.3,0.2-0.4
			c0.1-0.1,0.2-0.1,0.3-0.1c0,0,0,0,0,0c2.5,0.1,4,0.9,4,2C16.5,17.4,16.5,18,14.5,18z M16.7,21.1c-0.2-0.1-0.5,0-0.7,0.2l-0.9,1.9
			c-0.2-0.1-0.4-0.1-0.6-0.1c-0.2,0-0.4,0.1-0.6,0.1l-1.9-2.9l-0.4-0.9C11.4,18.6,10.8,18,10,18c-0.8,0-1.4,0.6-1.5,1.4l-0.4,0.9
			l-1.9,2.9C5.9,23.1,5.7,23,5.5,23c-0.2,0-0.4,0.1-0.6,0.1l-0.9-1.9c-0.1-0.2-0.4-0.3-0.7-0.2c-0.2,0.1-0.3,0.4-0.2,0.7l1,2
			c0,0,0.1,0.1,0.1,0.1C4.1,24,4,24.3,4,24.5C4,25.3,4.7,26,5.5,26c0.7,0,1.2-0.4,1.4-1h6.2c0.2,0.6,0.8,1,1.4,1
			c0.8,0,1.5-0.7,1.5-1.5c0-0.2-0.1-0.5-0.2-0.7c0,0,0.1-0.1,0.1-0.1l1-2C17.1,21.5,17,21.2,16.7,21.1z M5.5,25
			C5.2,25,5,24.8,5,24.5S5.2,24,5.5,24S6,24.2,6,24.5S5.8,25,5.5,25z M8,24H6.9c0-0.1,0-0.1-0.1-0.2c0,0,0.1,0,0.1-0.1L8,22.2V24z
			 M10,19c0.3,0,0.5,0.2,0.5,0.5S10.3,20,10,20s-0.5-0.2-0.5-0.5S9.7,19,10,19z M11,24H9v-3.4l0,0c0.3,0.2,0.6,0.4,1,0.4
			s0.7-0.1,1-0.4l0,0V24z M13.1,24H12v-1.9l1.1,1.6c0,0,0,0,0.1,0.1C13.1,23.9,13.1,23.9,13.1,24z M14.5,25c-0.3,0-0.5-0.2-0.5-0.5
			s0.2-0.5,0.5-0.5s0.5,0.2,0.5,0.5S14.8,25,14.5,25z M7.8,18.7C8.5,18.5,9,17.9,9,17.2v-1.7c0-0.4-0.2-0.8-0.5-1.1
			C8.2,14.2,7.8,14,7.4,14c-4.3,0.2-4.9,2-4.9,3c0,2,2.3,2,3,2C6.4,19,7.3,18.8,7.8,18.7z M3.5,17c0-1.1,1.4-1.8,4-2h0
			c0.1,0,0.2,0,0.3,0.1C7.9,15.3,8,15.4,8,15.5v1.7c0,0.2-0.2,0.4-0.4,0.5C7.1,17.8,6.3,18,5.5,18C3.5,18,3.5,17.3,3.5,17z"/>
	</g>
</g>
</svg>
