<?xml version="1.0" encoding="utf-8"?>
<!-- Generator: Adobe Illustrator 19.0.0, SVG Export Plug-In . SVG Version: 6.00 Build 0)  -->
<svg version="1.1" id="Layer_1" xmlns="http://www.w3.org/2000/svg" xmlns:xlink="http://www.w3.org/1999/xlink" x="0px" y="0px"
	 viewBox="-137 139 24 24" style="enable-background:new -137 139 24 24;" xml:space="preserve">
<style type="text/css">
	.st0{fill:#7171FF;}
	.st1{fill:none;}
	.st2{font-family:'Tahoma-Bold';}
	.st3{font-size:6.6729px;}
</style>
<g>
	<path class="st0" d="M-116.5,156c-0.3,0-0.5,0.2-0.5,0.5v3c0,0.8-0.7,1.5-1.5,1.5h-16c-0.8,0-1.5-0.7-1.5-1.5V145h19v3.5
		c0,0.3,0.2,0.5,0.5,0.5s0.5-0.2,0.5-0.5v-6c0-1.4-1.1-2.5-2.5-2.5h-16c-1.4,0-2.5,1.1-2.5,2.5v17c0,1.4,1.1,2.5,2.5,2.5h16
		c1.4,0,2.5-1.1,2.5-2.5v-3C-116,156.2-116.2,156-116.5,156z M-134.5,141h16c0.8,0,1.5,0.7,1.5,1.5v1.5h-19v-1.5
		C-136,141.7-135.3,141-134.5,141z"/>
	<circle class="st0" cx="-134.5" cy="142.5" r="0.5"/>
	<circle class="st0" cx="-132.5" cy="142.5" r="0.5"/>
	<circle class="st0" cx="-130.5" cy="142.5" r="0.5"/>
</g>
<rect x="-123.1" y="149.1" class="st1" width="10.1" height="6.8"/>
<text transform="matrix(1 0 0 1 -127.667 155.0502)" class="st0 st2 st3">EDD</text>
</svg>
