<?xml version="1.0" encoding="utf-8"?>
<!-- Generator: Adobe Illustrator 19.0.0, SVG Export Plug-In . SVG Version: 6.00 Build 0)  -->
<svg version="1.1" id="Layer_1" xmlns="http://www.w3.org/2000/svg" xmlns:xlink="http://www.w3.org/1999/xlink" x="0px" y="0px"
	 viewBox="-2 4 24 24" style="enable-background:new -2 4 24 24;" xml:space="preserve">
<style type="text/css">
	.st0{fill:#7171FF;}
</style>
<g>
	<g>
		<path class="st0" d="M0.5,7C0.2,7,0,7.2,0,7.5S0.2,8,0.5,8S1,7.8,1,7.5S0.8,7,0.5,7z M19.5,5h-19C-0.9,5-2,6.1-2,7.5v17
			c0,1.4,1.1,2.5,2.5,2.5h19c1.4,0,2.5-1.1,2.5-2.5v-17C22,6.1,20.9,5,19.5,5z M21,24.5c0,0.8-0.7,1.5-1.5,1.5h-19
			C-0.3,26-1,25.3-1,24.5V10h22V24.5z M21,9H-1V7.5C-1,6.7-0.3,6,0.5,6h19C20.3,6,21,6.7,21,7.5V9z M4.5,7C4.2,7,4,7.2,4,7.5
			S4.2,8,4.5,8S5,7.8,5,7.5S4.8,7,4.5,7z M2.5,7C2.2,7,2,7.2,2,7.5S2.2,8,2.5,8S3,7.8,3,7.5S2.8,7,2.5,7z"/>
	</g>
</g>
<path class="st0" d="M9.5,16C9.2,16,9,16.2,9,16.5v4C9,20.8,9.2,21,9.5,21s0.5-0.2,0.5-0.5V19h0.5c0.8,0,1.5-0.7,1.5-1.5
	S11.3,16,10.5,16H9.5z M11,17.5c0,0.3-0.2,0.5-0.5,0.5H10v-1h0.5C10.8,17,11,17.2,11,17.5z"/>
<path class="st0" d="M14.5,16h-1c-0.3,0-0.5,0.2-0.5,0.5v4c0,0.3,0.2,0.5,0.5,0.5s0.5-0.2,0.5-0.5V19h0.5c0.8,0,1.5-0.7,1.5-1.5
	S15.3,16,14.5,16z M14.5,18H14v-1h0.5c0.3,0,0.5,0.2,0.5,0.5S14.8,18,14.5,18z"/>
<path class="st0" d="M5.5,16.3l-1.5,4c-0.1,0.3,0,0.5,0.3,0.6c0.3,0.1,0.5,0,0.6-0.3L5.2,20h1.6L7,20.7C7.1,20.9,7.3,21,7.5,21
	c0.1,0,0.1,0,0.2,0c0.3-0.1,0.4-0.4,0.3-0.6l-1.5-4C6.3,15.9,5.7,15.9,5.5,16.3z M5.6,19L6,17.9L6.4,19H5.6z"/>
</svg>
