<?xml version="1.0" encoding="utf-8"?>
<!-- Generator: Adobe Illustrator 19.0.0, SVG Export Plug-In . SVG Version: 6.00 Build 0)  -->
<svg version="1.1" id="Layer_1" xmlns="http://www.w3.org/2000/svg" xmlns:xlink="http://www.w3.org/1999/xlink" x="0px" y="0px"
	 viewBox="-2 4 24 24" style="enable-background:new -2 4 24 24;" xml:space="preserve">
<style type="text/css">
	.st0{fill:#7171FF;}
</style>
<g>
	<path class="st0" d="M8.5,21C7.7,21,7,21.7,7,22.5S7.7,24,8.5,24s1.5-0.7,1.5-1.5S9.3,21,8.5,21z M8.5,23C8.2,23,8,22.8,8,22.5
		S8.2,22,8.5,22S9,22.2,9,22.5S8.8,23,8.5,23z"/>
	<path class="st0" d="M12.5,21c-0.8,0-1.5,0.7-1.5,1.5s0.7,1.5,1.5,1.5s1.5-0.7,1.5-1.5S13.3,21,12.5,21z M12.5,23
		c-0.3,0-0.5-0.2-0.5-0.5s0.2-0.5,0.5-0.5s0.5,0.2,0.5,0.5S12.8,23,12.5,23z"/>
	<path class="st0" d="M19.5,4h-19C-0.9,4-2,5.1-2,6.5v19c0,1.4,1.1,2.5,2.5,2.5h19c1.4,0,2.5-1.1,2.5-2.5v-19C22,5.1,20.9,4,19.5,4z
		 M21,25.5c0,0.8-0.7,1.5-1.5,1.5h-19C-0.3,27-1,26.3-1,25.5V9h22V25.5z M21,8H-1V6.5C-1,5.7-0.3,5,0.5,5h19C20.3,5,21,5.7,21,6.5V8
		z"/>
	<path class="st0" d="M2.5,14h1.6L6,21.6C6.1,21.8,6.3,22,6.5,22h0.1C6.9,21.9,7,21.7,7,21.4L6.6,20l7.9-0.9c0.2,0,0.4-0.2,0.4-0.4
		l1-4c0-0.1,0-0.3-0.1-0.4s-0.2-0.2-0.4-0.2H5l-0.2-0.6c-0.1-0.2-0.3-0.4-0.5-0.4h-2c-0.3,0-0.5,0.2-0.5,0.5S2.2,14,2.5,14z
		 M14.9,15l-0.8,3l-7.7,0.9l-1-4L14.9,15z"/>
	<circle class="st0" cx="2.5" cy="6.5" r="0.5"/>
	<circle class="st0" cx="0.5" cy="6.5" r="0.5"/>
	<circle class="st0" cx="4.5" cy="6.5" r="0.5"/>
</g>
</svg>
