<?xml version="1.0" encoding="utf-8"?>
<!-- Generator: Adobe Illustrator 19.0.0, SVG Export Plug-In . SVG Version: 6.00 Build 0)  -->
<svg version="1.1" id="Layer_1" xmlns="http://www.w3.org/2000/svg" xmlns:xlink="http://www.w3.org/1999/xlink" x="0px" y="0px"
	 viewBox="-2 4 24 24" style="enable-background:new -2 4 24 24;" xml:space="preserve">
<style type="text/css">
	.st0{fill:#7171FF;}
</style>
<g>
	<g>
		<path class="st0" d="M8.9,13.8c0.1-0.2,0.1-0.3,0-0.5S8.7,13,8.5,13c-0.2,0-4-0.1-5.7,0.5c-0.2,0.1-0.3,0.3-0.3,0.5
			c0,0,0.3,3,1.5,3C6.8,17,8.8,13.9,8.9,13.8z M15.5,20c-0.9,0-1.5-0.6-2.2-1.3C12.5,17.9,11.6,17,10,17s-2.5,0.9-3.3,1.7
			C6,19.4,5.4,20,4.5,20C4.2,20,4,20.2,4,20.5S4.2,21,4.5,21c1.3,0,2.2-0.8,2.9-1.6C8.1,18.7,8.8,18,10,18s1.9,0.7,2.6,1.4
			c0.7,0.7,1.5,1.6,2.9,1.6c0.3,0,0.5-0.2,0.5-0.5S15.8,20,15.5,20z M19.6,17.1c0.1-0.9-0.3-2.4-0.6-3.6c0-1.1-0.6-5.4-1.6-6.7
			C16,4.8,12.6,4,10,4S4,4.8,2.6,6.7C1.6,8,1,12.3,1,13.4c-0.4,1.2-0.7,2.7-0.6,3.6C-1,17.3-2,18.3-2,19.5c0,1,1.9,3.6,3,4.3
			C1.1,25.4,2,28,5,28c2.1,0,3.3-0.7,4.1-1.1c0.4-0.2,0.7-0.4,0.9-0.4s0.5,0.2,0.9,0.4c0.8,0.4,2,1.1,4.1,1.1c3,0,3.9-2.6,4-4.2
			c1.1-0.7,3-3.3,3-4.3C22,18.3,21,17.3,19.6,17.1z M3.4,7.3C4.5,5.8,7.6,5,10,5s5.5,0.8,6.6,2.3c0.5,0.7,1,3,1.3,4.7
			c-1-0.2-4.9-1-7.9-1s-6.8,0.8-7.9,1C2.4,10.3,2.9,8,3.4,7.3z M18.5,23c-0.3,0-0.5,0.2-0.5,0.5c0,0.1,0,3.2-2.7,3.5
			c0.7-0.1,1.7-0.5,1.7-2c0-0.6-0.4-1-1-1c-0.8,0-1,0.2-1.3,0.6l-0.1,0.1c-0.1,0.1-0.7,0.3-1.2,0.3c-0.3,0-0.4,0.2-0.4,0.5
			c0,0.5,0.4,1.5,2,1.5c-1.9,0-2.8-0.5-3.6-1c0,0-0.1,0-0.1-0.1c0.1,0,0.1,0,0.2,0c0.3,0,0.5-0.2,0.5-0.5v-2c0-0.3-0.2-0.5-0.5-0.5
			S11,23.2,11,23.5v2c0,0.2,0.1,0.3,0.3,0.4c-0.3-0.1-0.5-0.3-0.8-0.3c0,0,0-0.1,0-0.1v-3c0-0.3-0.2-0.5-0.5-0.5s-0.5,0.2-0.5,0.5v3
			c0,0,0,0.1,0,0.1c-0.3,0.1-0.5,0.2-0.8,0.3C8.9,25.8,9,25.7,9,25.5v-2C9,23.2,8.8,23,8.5,23S8,23.2,8,23.5v2C8,25.8,8.2,26,8.5,26
			c0.1,0,0.1,0,0.2,0c0,0-0.1,0-0.1,0.1c-0.8,0.4-1.7,1-3.6,1c1.6,0,2-1,2-1.5C7,25.2,6.8,25,6.6,25c-0.5-0.1-1.1-0.2-1.2-0.3
			l-0.1-0.1C5,24.2,4.8,24,4,24c-0.6,0-1,0.4-1,1c0,1.5,1,1.9,1.7,2C2,26.7,2,23.6,2,23.5C2,23.2,1.9,23,1.6,23
			C1,22.8-1,20.3-1,19.5c0-0.8,1-1.5,2-1.5c0.2,0,0.4-0.1,0.5-0.3c0.1-0.2,0-0.4-0.1-0.5c-0.2-0.3,0.1-2,0.6-3.5c0,0,0-0.1,0-0.1
			c0-0.1,0-0.3,0-0.5c0,0,0.1,0,0.1,0c0,0,4.7-1,7.9-1c3.2,0,7.9,1,7.9,1c0,0,0,0,0.1,0c0,0.2,0,0.4,0,0.5c0,0,0,0.1,0,0.1
			c0.5,1.6,0.8,3.2,0.6,3.5c-0.1,0.1-0.2,0.4-0.1,0.5c0.1,0.2,0.3,0.3,0.5,0.3c1,0,2,0.7,2,1.5C21,20.3,19,22.8,18.5,23z M17.2,13.5
			c-1.7-0.7-5.5-0.5-5.7-0.5c-0.2,0-0.3,0.1-0.4,0.3c-0.1,0.2-0.1,0.4,0,0.5c0.1,0.1,2.1,3.2,4.9,3.2c1.2,0,1.5-3,1.5-3
			C17.5,13.8,17.4,13.6,17.2,13.5z"/>
	</g>
</g>
</svg>
