<?xml version="1.0" encoding="utf-8"?>
<!-- Generator: Adobe Illustrator 19.0.0, SVG Export Plug-In . SVG Version: 6.00 Build 0)  -->
<svg version="1.1" id="Layer_1" xmlns="http://www.w3.org/2000/svg" xmlns:xlink="http://www.w3.org/1999/xlink" x="0px" y="0px"
	 viewBox="0 0 30 30" style="enable-background:new 0 0 30 30;" xml:space="preserve">
<style type="text/css">
	.st0{fill:#7171FF;}
</style>
<g>
	<g>
		<path class="st0" d="M20,19c1.1,0,2-0.9,2-2s-0.9-2-2-2s-2,0.9-2,2C18,18.1,18.9,19,20,19z M20,16c0.6,0,1,0.4,1,1s-0.4,1-1,1
			s-1-0.4-1-1C19,16.4,19.4,16,20,16z M7.5,21C6.1,21,5,22.1,5,23.5S6.1,26,7.5,26s2.5-1.1,2.5-2.5S8.9,21,7.5,21z M7.5,25
			C6.7,25,6,24.3,6,23.5C6,22.7,6.7,22,7.5,22S9,22.7,9,23.5C9,24.3,8.3,25,7.5,25z M30,5.5V4.1C30,2.4,28.6,1,27,1H3
			C1.4,1,0,2.4,0,4.1v21.9C0,27.6,1.4,29,3,29h24c1.7,0,3-1.4,3-3.1V5.5C30,5.5,30,5.5,30,5.5C30,5.5,30,5.5,30,5.5z M29,25.9
			c0,1.1-0.9,2.1-2,2.1H3c-1.1,0-2-0.9-2-2.1V6h28V25.9z M29,5H1V4.1C1,2.9,1.9,2,3,2h24c1.1,0,2,0.9,2,2.1V5z M7.5,3
			C7.2,3,7,3.2,7,3.5S7.2,4,7.5,4S8,3.8,8,3.5S7.8,3,7.5,3z M5.5,3C5.2,3,5,3.2,5,3.5S5.2,4,5.5,4S6,3.8,6,3.5S5.8,3,5.5,3z
			 M3.7,16.9L5.3,16l1.2,1.7c0.1,0.1,0.3,0.2,0.5,0.2c0.5-0.1,0.9-0.1,1.4,0c0.2,0,0.4,0,0.5-0.2l1.2-1.7l2.6,1.5l-0.8,2.1
			c-0.1,0.2,0,0.3,0.1,0.5c0.3,0.4,0.5,0.8,0.7,1.3c0.1,0.2,0.2,0.3,0.4,0.3l2,0.3v3.2c-0.1,0.2-0.1,0.5,0.1,0.7
			c0.1,0.1,0.2,0.1,0.3,0.1c0.1,0,0.3-0.1,0.4-0.2c0.1-0.2,0.2-0.4,0.2-0.6v-3.3c0-0.2-0.1-0.4-0.2-0.6c0.1,0,0.3,0,0.4,0l1.1-0.5
			c0.2,0.1,0.4,0.2,0.6,0.3l0.2,1.2c0.1,0.4,0.4,0.6,0.8,0.6h2.3c0.4,0,0.7-0.3,0.8-0.7l0.2-1.2c0.2-0.1,0.4-0.2,0.6-0.3l1.2,0.5
			c0.3,0.1,0.7,0,0.9-0.3l1.1-1.9c0.2-0.3,0.1-0.7-0.2-1c0,0,0,0,0,0l-1-0.7c0-0.1,0-0.2,0-0.3c0-0.1,0-0.2,0-0.3l1-0.8
			c0.3-0.2,0.4-0.6,0.2-1L24.8,13c-0.2-0.3-0.6-0.5-1-0.3l-1.1,0.5c-0.2-0.1-0.4-0.2-0.6-0.3l-0.2-1.1c0-0.4-0.4-0.7-0.8-0.7h-2.3
			c-0.4,0-0.7,0.3-0.8,0.7l-0.2,1.2c-0.2,0.1-0.4,0.2-0.6,0.3l-1.2-0.5c-0.3-0.1-0.7,0-0.9,0.3L14.1,15c-0.2,0.3-0.1,0.8,0.2,1
			l1,0.7c0,0.1,0,0.2,0,0.3c0,0.1,0,0.2,0,0.3l-1,0.8c-0.3,0.2-0.4,0.6-0.2,1l1.1,1.9c0,0,0,0.1,0.1,0.1c0,0,0,0-0.1,0l-1.8-0.3
			c-0.2-0.4-0.4-0.7-0.6-1l0.7-1.8c0.1-0.4,0-0.9-0.4-1.1l-2.7-1.7c-0.4-0.2-0.9-0.2-1.2,0.2l-1.1,1.5c-0.4,0-0.7,0-1.1,0L6,15.3
			c-0.3-0.4-0.8-0.4-1.1-0.2l-1.6,0.9c-0.2,0.1-0.3,0.4-0.2,0.7S3.5,17.1,3.7,16.9z M15.1,18.7l1-0.8c0.1-0.1,0.2-0.3,0.2-0.5
			c0-0.2,0-0.3,0-0.5s0-0.3,0-0.5c0-0.2,0-0.4-0.2-0.5l-1-0.8l0.9-1.6l1.2,0.5c0.2,0.1,0.3,0,0.5-0.1c0.2-0.2,0.5-0.3,0.9-0.5
			c0.2-0.1,0.3-0.2,0.3-0.4l0.2-1.3h1.9l0.2,1.3c0,0.2,0.1,0.3,0.3,0.4c0.3,0.1,0.6,0.3,0.8,0.5c0.1,0.1,0.3,0.1,0.5,0.1l1.2-0.5
			l0.9,1.6l-1,0.8c-0.1,0.1-0.2,0.3-0.2,0.5c0,0.1,0,0.3,0,0.4c0,0.2,0,0.3,0,0.5c0,0.2,0.1,0.4,0.2,0.5l1,0.8L24,20.3l-1.2-0.5
			c-0.2-0.1-0.4,0-0.5,0.1c-0.2,0.2-0.5,0.3-0.8,0.5c-0.2,0.1-0.3,0.2-0.3,0.4L20.9,22h-1.9l-0.2-1.3c0-0.2-0.1-0.3-0.3-0.4
			c-0.3-0.1-0.6-0.3-0.8-0.5c-0.1-0.1-0.3-0.1-0.5-0.1L16,20.3L15.1,18.7z M3.5,3C3.2,3,3,3.2,3,3.5S3.2,4,3.5,4S4,3.8,4,3.5
			S3.8,3,3.5,3z"/>
	</g>
</g>
</svg>
